<svg xmlns="http://www.w3.org/2000/svg" viewBox="0 14.210000038146973 85.5 44.02000045776367" data-asc="1.15478515625" width="85.5" height="44.02000045776367"><defs/><g fill="#000000"><g transform="translate(0, 0)"><path d="M0 57.74L0 14.77L4.08 14.77L10.84 50.85L17.36 14.77L21.44 14.77L21.44 57.74L18.14 57.74L18.14 39.33L18.70 22.02L12.57 56.81L9.11 56.81L2.76 22.02L3.32 39.33L3.32 57.74L0 57.74ZM26.20 57.74L33.11 14.77L36.82 14.77L44.46 57.74L40.94 57.74L39.53 48.90L30.93 48.90L29.64 57.74L26.20 57.74M31.40 46.19L39.04 46.19L35.08 21.70L35.03 21.70L31.40 46.19ZM56.25 58.23Q53.10 58.23 51.45 56.63Q49.80 55.03 49.22 51.93Q48.63 48.83 48.63 44.31L48.63 27.20Q48.63 24.46 48.90 22.09Q49.17 19.73 49.95 17.96Q50.73 16.19 52.28 15.20Q53.83 14.21 56.40 14.21Q59.01 14.21 60.49 15.22Q61.96 16.24 62.63 18.04Q63.31 19.85 63.48 22.27Q63.65 24.68 63.65 27.49L63.65 31.20L59.96 31.20L59.96 27.05Q59.96 22.27 59.35 19.76Q58.74 17.26 56.37 17.26Q53.93 17.26 53.10 19.74Q52.27 22.22 52.27 27.03L52.27 44.26Q52.27 48.22 52.56 50.63Q52.86 53.05 53.71 54.15Q54.57 55.25 56.23 55.25Q58.62 55.25 59.29 52.72Q59.96 50.20 59.96 44.29L59.96 40.84L63.62 40.84L63.62 44.26Q63.62 48.75 63.09 51.88Q62.55 55.00 60.96 56.62Q59.38 58.23 56.25 58.23ZM70.56 57.74L70.56 14.77L77.17 14.77Q80.66 14.77 82.45 16.27Q84.23 17.77 84.86 20.53Q85.50 23.29 85.50 27.03L85.50 45.43Q85.50 49.90 84.68 52.60Q83.86 55.30 82.01 56.52Q80.15 57.74 77.03 57.74L70.56 57.74M74.17 54.61L77.17 54.61Q78.76 54.61 79.80 53.88Q80.83 53.15 81.35 51.09Q81.86 49.02 81.86 45.07L81.86 26.64Q81.86 21.88 80.76 19.84Q79.66 17.80 77.39 17.80L74.17 17.80L74.17 54.61Z"/></g></g></svg>