<svg xmlns="http://www.w3.org/2000/svg" viewBox="0 14.770000457763672 50.04999923706055 42.970001220703125" data-asc="1.15478515625" width="50.04999923706055" height="42.970001220703125"><defs/><g fill="#000000"><g transform="translate(0, 0)"><path d="M0 57.74L0 14.77L4.08 14.77L10.84 50.85L17.36 14.77L21.44 14.77L21.44 57.74L18.14 57.74L18.14 39.33L18.70 22.02L12.57 56.81L9.11 56.81L2.76 22.02L3.32 39.33L3.32 57.74L0 57.74ZM29.39 57.74L29.39 14.77L40.67 14.77L40.67 17.60L33.01 17.60L33.01 33.20L40.26 33.20L40.26 36.11L33.01 36.11L33.01 57.74L29.39 57.74ZM46.41 57.74L46.41 14.77L50.05 14.77L50.05 57.74L46.41 57.74Z"/></g></g></svg>