<svg xmlns="http://www.w3.org/2000/svg" viewBox="0 14.210000038146973 45.02000045776367 44.02000045776367" data-asc="1.15478515625" width="45.02000045776367" height="44.02000045776367"><defs/><g fill="#000000"><g transform="translate(0, 0)"><path d="M0 57.74L0 14.77L7.30 14.77Q10.77 14.77 12.38 15.87Q13.99 16.97 14.47 19.31Q14.94 21.66 14.94 25.37Q14.94 29.49 14.09 32.01Q13.23 34.52 10.99 35.16Q12.23 35.35 13.01 36.24Q13.79 37.13 14.20 39.15Q14.60 41.16 14.76 44.70Q14.92 48.24 14.92 53.74Q14.92 54.32 14.92 54.77Q14.92 55.22 14.94 55.59Q14.97 55.96 15.03 56.29Q15.09 56.62 15.19 56.97Q15.28 57.32 15.45 57.74L11.84 57.74Q11.69 57.45 11.60 57.04Q11.50 56.64 11.44 55.86Q11.38 55.08 11.35 53.66Q11.33 52.25 11.32 49.93Q11.30 47.61 11.30 44.14Q11.30 41.19 11.17 39.65Q11.04 38.11 10.24 37.51Q9.45 36.91 7.50 36.79L3.64 36.55L3.64 57.74L0 57.74M3.61 34.11L7.42 34.11Q8.98 34.11 9.83 33.56Q10.67 33.01 10.99 31.16Q11.30 29.32 11.30 25.46L11.30 25.15Q11.30 21.97 11.02 20.41Q10.74 18.85 9.96 18.32Q9.18 17.80 7.69 17.80L3.61 17.80L3.61 34.11ZM27.93 58.23Q25.37 58.23 23.86 57.19Q22.36 56.15 21.63 54.33Q20.90 52.51 20.68 50.11Q20.46 47.71 20.46 44.97L20.46 40.53L24.02 40.53L24.02 44.90Q24.02 50.42 24.82 52.83Q25.61 55.25 28.15 55.25Q29.93 55.25 30.70 54.37Q31.47 53.49 31.67 51.61Q31.86 49.73 31.86 46.70Q31.86 43.38 31.04 41.35Q30.22 39.31 28.13 37.38L25.59 35.03Q24.41 33.96 23.14 32.54Q21.88 31.13 21.00 29.24Q20.12 27.34 20.12 24.88Q20.12 21.78 20.67 19.37Q21.22 16.97 22.84 15.59Q24.46 14.21 27.71 14.21Q30.35 14.21 31.81 15.22Q33.28 16.24 33.92 18.04Q34.57 19.85 34.72 22.24Q34.86 24.63 34.86 27.42L34.86 29.83L31.62 29.83L31.62 27.15Q31.62 23.19 31.26 21.06Q30.91 18.92 30.08 18.09Q29.25 17.26 27.76 17.26Q26.34 17.26 25.45 17.82Q24.56 18.38 24.16 19.89Q23.75 21.39 23.75 24.27Q23.75 26.32 24.22 27.58Q24.68 28.83 25.63 29.86Q26.59 30.88 28.00 32.30L30.37 34.64Q32.81 37.04 34.19 39.94Q35.57 42.85 35.57 47.09Q35.57 50.37 35.01 52.88Q34.45 55.40 32.81 56.81Q31.18 58.23 27.93 58.23ZM41.38 57.74L41.38 14.77L45.02 14.77L45.02 57.74L41.38 57.74Z"/></g></g></svg>